<svg width="452" height="742" viewBox="0 0 452 742" fill="none" xmlns="http://www.w3.org/2000/svg">
<g id="buffer">
<g id="body">
<mask id="mask0_64_209" style="mask-type:alpha" maskUnits="userSpaceOnUse" x="0" y="299" width="452" height="443">
<path id="Vector 1" d="M0 717.002L133.215 299.5L314 299.502L452 717.002C386.842 720.696 359.602 713.322 322 689.002C295.746 723.399 267.079 742.458 223.5 741.502C181.634 740.583 151.372 719.146 130 689.002C84.4461 715.882 55.6237 720.902 0 717.002Z" fill="#D9D9D9"/>
</mask>
<g mask="url(#mask0_64_209)">
<path id="Vector 2" d="M0 717.002L133.215 299.5L314 299.502L452 717.002C386.842 720.696 359.602 713.322 322 689.002C295.746 723.399 267.079 742.458 223.5 741.502C181.634 740.583 151.372 719.146 130 689.002C84.4461 715.882 55.6237 720.902 0 717.002Z" fill="#D9D9D9"/>
<circle id="Ellipse 2" cx="223.5" cy="227.5" r="173.5" fill="#B7B7B7"/>
</g>
</g>
<g id="head">
<g id="Vector">
<path d="M397 173.5C397 269.321 319.321 347 223.5 347C127.679 347 50 269.321 50 173.5C50 77.6786 127.679 0 223.5 0C319.321 0 397 77.6786 397 173.5Z" fill="#D9D9D9"/>
<path d="M162 206C162 238.033 187.967 264 220 264C252.033 264 278 238.033 278 206H286C286 242.451 256.451 272 220 272C183.549 272 154 242.451 154 206H162Z" fill="#595959"/>
</g>
<circle id="E2" cx="158" cy="126" r="18" fill="#595959"/>
<circle id="E1" cx="282" cy="126" r="18" fill="#595959"/>
</g>
</g>
</svg>
