<svg width="385" height="202" viewBox="0 0 385 202" fill="none" xmlns="http://www.w3.org/2000/svg">
<g id="cloudy">
<path id="C3" d="M92.0601 42.5C103.572 42.5 113.177 50.6607 115.407 61.5124C122.848 62.3567 128.831 68.0049 130.179 75.2805H45.7815C45.78 75.1769 45.7775 75.0732 45.7775 74.9693C45.7775 63.6895 54.9216 54.545 66.2014 54.5449C67.8626 54.5449 69.4775 54.7446 71.0237 55.1189C75.036 47.6096 82.9513 42.5 92.0601 42.5Z" fill="#FBF7F9"/>
<g id="C1">
<path d="M257.107 31C273.255 31 286.73 42.4474 289.859 57.6699C300.297 58.854 308.69 66.7788 310.583 76.9858H192.183C192.181 76.8405 192.18 76.6949 192.18 76.5491C192.18 60.7253 205.007 47.8974 220.831 47.8974C223.162 47.8974 225.428 48.1761 227.597 48.7013C233.226 38.1676 244.329 31.0001 257.107 31Z" fill="#FBF7F9"/>
<path d="M301.103 53.9991C312.615 53.9991 322.22 62.1598 324.45 73.0114C331.891 73.8557 337.874 79.5039 339.223 86.7795H254.825C254.823 86.676 254.82 86.5723 254.82 86.4683C254.82 75.1885 263.965 66.0445 275.245 66.0445C276.906 66.0445 278.521 66.2441 280.067 66.6184C284.079 59.109 291.994 53.9991 301.103 53.9991Z" fill="#FBF7F9"/>
</g>
<g id="C2">
<path d="M107.607 124.779C123.756 124.779 137.23 136.227 140.359 151.45C150.797 152.634 159.191 160.558 161.083 170.765H42.6834C42.6812 170.62 42.6798 170.475 42.6798 170.329C42.6798 154.505 55.5076 141.677 71.3315 141.677C73.6623 141.677 75.9279 141.955 78.0972 142.481C83.7259 131.947 94.8294 124.779 107.607 124.779Z" fill="#FBF7F9"/>
<path d="M157.799 137.978C169.31 137.978 178.916 146.139 181.146 156.991C188.586 157.835 194.569 163.483 195.918 170.759H111.52C111.519 170.655 111.516 170.551 111.516 170.448C111.516 159.168 120.66 150.024 131.94 150.024C133.601 150.024 135.216 150.223 136.762 150.598C140.775 143.088 148.69 137.978 157.799 137.978Z" fill="#FBF7F9"/>
</g>
<path id="C4" d="M304.201 131.382C315.712 131.382 325.318 139.543 327.548 150.394C334.988 151.238 340.971 156.887 342.32 164.162H257.922C257.921 164.059 257.918 163.955 257.918 163.851C257.918 152.571 267.062 143.427 278.342 143.427C280.003 143.427 281.618 143.626 283.164 144.001C287.177 136.491 295.092 131.382 304.201 131.382Z" fill="#FBF7F9"/>
</g>
</svg>
