<svg width="300" height="179" viewBox="0 0 300 179" fill="none" xmlns="http://www.w3.org/2000/svg">
<g id="foggy">
<path id="F6" d="M256.753 178.689H51.8112C44.5258 178.689 38.6198 172.265 38.6198 164.432C38.6198 156.599 44.5258 150.174 51.8112 150.174H256.753C264.039 150.174 269.944 156.599 269.944 164.432C269.944 172.265 264.039 178.689 256.753 178.689Z" fill="#A2BEE2"/>
<path id="F5" d="M118.408 13.4407C118.408 20.8639 112.813 26.8815 105.911 26.8815C99.0093 26.8815 93.4142 20.8639 93.4142 13.4407C93.4142 6.01763 99.0093 0 105.911 0C112.813 0 118.408 6.01763 118.408 13.4407Z" fill="#A2BEE2"/>
<path id="F4" d="M207.036 27.0227H152.118C145.177 27.0227 139.551 20.9735 139.551 13.5114C139.551 6.04924 145.177 0 152.118 0H207.036C213.976 0 219.602 6.04924 219.602 13.5114C219.602 20.9735 213.976 27.0227 207.036 27.0227Z" fill="#A2BEE2"/>
<path id="F3" d="M267.23 76.8125H214.673C207.387 76.8125 201.481 70.3879 201.481 62.5547C201.481 54.7216 207.387 48.2969 214.673 48.2969H267.23C274.515 48.2969 280.421 54.7216 280.421 62.5547C280.421 70.3879 274.515 76.8125 267.23 76.8125Z" fill="#A2BEE2"/>
<path id="F2" d="M168.78 48.2969H24.6471C17.3617 48.2969 11.4557 54.7216 11.4557 62.5547C11.4557 70.3879 17.3617 76.8125 24.6471 76.8125H112.266C118.362 76.8125 123.305 82.1265 123.305 88.6816C123.305 95.2367 118.362 100.551 112.266 100.551H107.093C100.172 100.551 94.5615 106.583 94.5615 114.025C94.5615 121.466 100.172 127.499 107.093 127.499H287.468C294.389 127.499 300 121.466 300 114.025C300 106.583 294.389 100.551 287.468 100.551H170.377C164.281 100.551 159.338 95.2367 159.338 88.6816C159.338 82.1265 164.281 76.8125 170.377 76.8125H170.655C176.905 76.8125 181.972 71.3649 181.972 64.6449V62.4801C181.972 54.6469 176.066 48.2969 168.78 48.2969Z" fill="#A2BEE2"/>
<path id="F1" d="M64.742 102.343H11.6987C5.23768 102.343 0 107.974 0 114.921C0 121.868 5.23768 127.499 11.6987 127.499H64.742C71.203 127.499 76.4406 121.868 76.4406 114.921C76.4406 107.974 71.203 102.343 64.742 102.343Z" fill="#A2BEE2"/>
</g>
</svg>
