<svg width="300" height="359" viewBox="0 0 300 359" fill="none" xmlns="http://www.w3.org/2000/svg">
<g id="rainy">
<path id="R4" d="M270.966 94.3303C279.93 109.857 274.61 129.711 259.083 138.675C243.557 147.64 223.703 142.32 214.738 126.793C205.774 111.266 216.489 64.9004 216.489 64.9004C216.489 64.9004 262.001 78.8035 270.966 94.3303Z" fill="#8BACE4"/>
<path id="R3" d="M84.3467 250.698C90.5285 268.969 80.7278 288.793 62.4563 294.974C44.1847 301.156 24.3613 291.355 18.1795 273.084C11.9977 254.812 33.0836 208.157 33.0836 208.157C33.0836 208.157 78.1649 232.426 84.3467 250.698Z" fill="#8BACE4"/>
<path id="R2" d="M274.894 265.299C288.76 289.315 280.531 320.023 256.516 333.889C232.5 347.754 201.792 339.526 187.926 315.51C174.061 291.495 190.635 219.779 190.635 219.779C190.635 219.779 261.029 241.283 274.894 265.299Z" fill="#8BACE4"/>
<path id="R1" d="M132.325 70.6263C146.19 94.6419 137.962 125.351 113.946 139.216C89.9306 153.081 59.2219 144.853 45.3565 120.837C31.4911 96.8218 48.065 25.1063 48.065 25.1063C48.065 25.1063 118.459 46.6106 132.325 70.6263Z" fill="#8BACE4"/>
</g>
</svg>
