<svg width="300" height="270" viewBox="0 0 300 270" fill="none" xmlns="http://www.w3.org/2000/svg">
<g id="snowy">
<path id="SN3" d="M177.887 0L193.748 62.0871L147.245 18.8597L156.831 49.2235L126.189 56.3351L185.8 74.393L124.272 91.6143L156.831 98.7607L147.245 128.846L192.633 87.2567L177.887 145.509L200.86 124.453L222.194 145.509L207.414 86.176L251.442 128.846L244.087 98.7607L275.809 91.6143L214.246 74.393L273.334 56.3351L244.087 49.2235L251.442 18.8597L207.414 62.0871L222.194 1.63846L200.86 23.8099L177.887 0Z" fill="#F8FCFC"/>
<path id="SN2" d="M36.7668 132.954L47.6439 175.528L15.7538 145.886L22.3278 166.707L1.31481 171.584L42.1934 183.966L0 195.775L22.3278 200.675L15.7538 221.305L46.8789 192.787L36.7668 232.731L52.5206 218.293L67.1509 232.731L57.0149 192.046L87.2077 221.305L82.1636 200.675L103.918 195.775L61.7004 183.966L102.22 171.584L82.1636 166.707L87.2077 145.886L57.0149 175.528L67.1509 134.078L52.5206 149.281L36.7668 132.954Z" fill="#F8FCFC"/>
<path id="SN1" d="M232.849 169.533L243.726 212.107L211.836 182.465L218.41 203.286L197.397 208.163L238.276 220.545L196.082 232.354L218.41 237.254L211.836 257.884L242.961 229.366L232.849 269.31L248.603 254.872L263.233 269.31L253.097 228.625L283.29 257.884L278.246 237.254L300 232.354L257.783 220.545L298.303 208.163L278.246 203.286L283.29 182.465L253.097 212.107L263.233 170.657L248.603 185.86L232.849 169.533Z" fill="#F8FCFC"/>
</g>
</svg>
