<svg width="300" height="410" viewBox="0 0 300 410" fill="none" xmlns="http://www.w3.org/2000/svg">
<g id="stormy">
<path id="ST13" d="M175.673 409.907L157.045 331.67L173.953 326.703L175.673 409.907Z" fill="#CDB4E7"/>
<path id="ST12" d="M159.052 340.553L227.353 305.495L214.743 286.198L155.517 326.701L159.052 340.553Z" fill="#CDB4E7"/>
<path id="ST11" d="M300 405.701L180.449 207.579L148.161 226.971L300 405.701Z" fill="#CDB4E7"/>
<path id="ST10" d="M182.933 211.402L61.3279 303.489L63.6205 272.539L173.571 195.735L182.933 211.402Z" fill="#CDB4E7"/>
<path id="ST9" d="M0 342.082L21.0158 262.317L35.8224 260.024L0 342.082Z" fill="#CDB4E7"/>
<path id="ST8" d="M17.7678 275.213L67.2505 274.353L66.4863 255.726L21.0157 262.699L17.7678 275.213Z" fill="#CDB4E7"/>
<path id="ST7" d="M61.3279 303.488L73.0776 144.15L93.6158 146.443L74.9881 293.171L61.3279 303.488Z" fill="#CDB4E7"/>
<path id="ST6" d="M133.736 150.933L73.1726 144.15L72.1218 157.237L146.537 161.918L133.736 150.933Z" fill="#CDB4E7"/>
<path id="ST5" d="M110.429 159.626L50.8201 104.412L79.7646 104.316L146.442 161.823L110.429 159.626Z" fill="#CDB4E7"/>
<path id="ST4" d="M72.1224 124.092H135.456L121.987 104.413H50.8201L72.1224 124.092Z" fill="#CDB4E7"/>
<path id="ST3" d="M114.441 124.186L61.5193 51.8721L90.1772 58.6544L135.361 124.186H114.441Z" fill="#CDB4E7"/>
<path id="ST2" d="M74.1286 68.8752L146.442 80.9116L142.048 70.8813L61.4236 51.585L74.1286 68.8752Z" fill="#CDB4E7"/>
<path id="ST1" d="M64.4802 7.83316L111.384 0L146.442 80.9108L121.987 76.8032L64.4802 7.83316Z" fill="#CDB4E7"/>
</g>
</svg>
