<svg width="300" height="300" viewBox="0 0 300 300" fill="none" xmlns="http://www.w3.org/2000/svg">
<g id="sunny">
<path id="SU8" d="M22.9855 134.781C20.4325 134.539 18.5663 132.248 18.944 129.711C22.0924 108.572 30.3466 88.058 43.685 70.1656C45.2233 68.1022 48.1779 67.8189 50.1469 69.4773L129.725 136.505C133.162 139.4 130.815 144.996 126.342 144.573L22.9855 134.781Z" fill="#F5B668"/>
<path id="SU7" d="M51.3266 232.061C49.3746 233.724 46.4307 233.467 44.8741 231.429C31.9003 214.444 22.9324 194.232 19.3868 172.199C18.9779 169.658 20.8329 167.341 23.3943 167.083L126.918 156.68C131.389 156.23 133.769 161.813 130.35 164.726L51.3266 232.061Z" fill="#F5B668"/>
<path id="SU6" d="M165.9 23.046C166.134 20.5579 168.359 18.6702 170.823 18.9545C191.365 21.3239 211.302 28.674 228.695 41.0488C230.701 42.476 230.978 45.3371 229.368 47.304L164.291 126.798C161.481 130.231 156.042 128.134 156.451 123.775L165.9 23.046Z" fill="#F5B668"/>
<path id="SU5" d="M74.9105 47.7599C73.3928 45.8139 73.6767 42.92 75.5963 41.4179C91.5948 28.8984 110.535 20.3698 131.087 17.2054C133.457 16.8405 135.585 18.7006 135.785 21.2257L143.889 123.281C144.239 127.689 139.01 129.949 136.351 126.54L74.9105 47.7599Z" fill="#F5B668"/>
<path id="SU4" d="M277.987 165.837C280.455 166.045 282.237 168.241 281.845 170.698C278.579 191.176 270.379 211.102 257.286 228.545C255.776 230.556 252.915 230.861 251.027 229.278L174.725 165.28C171.429 162.517 173.758 157.08 178.082 157.443L277.987 165.837Z" fill="#F5B668"/>
<path id="SU3" d="M251.148 69.5725C253.008 67.9391 255.812 68.1919 257.296 70.1937C269.659 86.8781 278.206 106.732 281.586 128.375C281.976 130.87 280.209 133.146 277.769 133.399L179.135 143.606C174.875 144.047 172.606 138.563 175.864 135.702L251.148 69.5725Z" fill="#F5B668"/>
<path id="SU2" d="M136.03 277.308C135.823 279.673 133.718 281.455 131.372 281.169C111.816 278.787 92.8043 271.672 76.1813 259.793C74.2643 258.424 73.9829 255.7 75.5023 253.84L136.913 178.636C139.565 175.388 144.753 177.417 144.391 181.56L136.03 277.308Z" fill="#F5B668"/>
<path id="SU1" d="M226.906 253.552C228.421 255.474 228.07 258.274 226.07 259.685C209.403 271.449 189.803 279.274 168.663 281.859C166.225 282.157 164.083 280.304 163.93 277.85L157.758 178.697C157.492 174.416 162.901 172.346 165.556 175.715L226.906 253.552Z" fill="#F5B668"/>
<ellipse id="SU0" cx="145.303" cy="156.561" rx="53.6625" ry="53.6627" fill="#F5B668"/>
</g>
</svg>
